<svg width="208" height="156" viewBox="0 0 208 156" fill="none" xmlns="http://www.w3.org/2000/svg">
<path d="M32.71 43.524C34.6114 43.524 36.1528 42.3599 36.1528 40.924C36.1528 39.488 34.6114 38.324 32.71 38.324C30.8085 38.324 29.2671 39.488 29.2671 40.924C29.2671 42.3599 30.8085 43.524 32.71 43.524Z" fill="#FD853A"/>
<path d="M55.6738 43.524C57.5753 43.524 59.1167 42.3599 59.1167 40.924C59.1167 39.488 57.5753 38.324 55.6738 38.324C53.7724 38.324 52.231 39.488 52.231 40.924C52.231 42.3599 53.7724 43.524 55.6738 43.524Z" fill="#FD853A"/>
<path d="M44.209 43.524C46.1104 43.524 47.6519 42.3599 47.6519 40.924C47.6519 39.488 46.1104 38.324 44.209 38.324C42.3075 38.324 40.7661 39.488 40.7661 40.924C40.7661 42.3599 42.3075 43.524 44.209 43.524Z" fill="#FD853A"/>
<path d="M69.4451 78.65L79.7737 70.85C80.422 70.3604 80.7862 69.6963 80.7862 69.004C80.7862 68.3116 80.422 67.6475 79.7737 67.158C79.1254 66.6684 78.2461 66.3933 77.3293 66.3933C76.4124 66.3933 75.5331 66.6684 74.8848 67.158L62.0773 76.8559C61.4361 77.3431 61.0762 78.0021 61.0762 78.6889C61.0762 79.3758 61.4361 80.0348 62.0773 80.5219L74.8848 90.22C75.2049 90.4636 75.5857 90.6571 76.0052 90.7891C76.4247 90.9211 76.8748 90.989 77.3293 90.989C77.7838 90.989 78.2337 90.9211 78.6533 90.7891C79.0728 90.6571 79.4536 90.4636 79.7737 90.22C80.4149 89.7328 80.7748 89.0738 80.7748 88.3869C80.7748 87.7001 80.4149 87.0411 79.7737 86.554L69.4451 78.65Z" fill="#FD853A"/>
<path d="M118.747 90.1681C119.392 90.6523 120.265 90.9241 121.174 90.9241C122.084 90.9241 122.956 90.6523 123.602 90.1681L136.443 80.6C137.085 80.1129 137.445 79.4539 137.445 78.7671C137.445 78.0802 137.085 77.4212 136.443 76.9341L123.602 67.2361C122.953 66.7499 122.076 66.4782 121.162 66.4806C120.249 66.483 119.374 66.7595 118.73 67.2491C118.086 67.7386 117.726 68.4013 117.73 69.0912C117.733 69.7812 118.099 70.4419 118.747 70.9281L129.076 78.7281L118.747 86.528C118.116 87.0141 117.763 87.6675 117.763 88.348C117.763 89.0286 118.116 89.682 118.747 90.1681Z" fill="#FD853A"/>
<path d="M107.317 67.99C106.924 67.8181 106.49 67.7066 106.039 67.6619C105.589 67.6173 105.132 67.6403 104.693 67.7297C104.255 67.8191 103.844 67.9732 103.485 68.1829C103.126 68.3927 102.825 68.6541 102.6 68.952L89.8958 85.8C89.6467 86.0959 89.4794 86.4269 89.404 86.7729C89.3287 87.1189 89.3468 87.4728 89.4573 87.8134C89.5677 88.154 89.7683 88.4742 90.0469 88.7547C90.3254 89.0353 90.6763 89.2704 91.0783 89.4459C91.4803 89.6213 91.9252 89.7336 92.3861 89.7759C92.8471 89.8182 93.3146 89.7896 93.7605 89.6919C94.2065 89.5942 94.6216 89.4294 94.9811 89.2074C95.3405 88.9854 95.6367 88.7107 95.8519 88.4L108.694 71.63C108.934 71.3254 109.089 70.9868 109.15 70.6352C109.21 70.2836 109.175 69.9264 109.046 69.5854C108.917 69.2445 108.697 68.9271 108.4 68.6527C108.102 68.3784 107.734 68.1528 107.317 67.99Z" fill="#FD853A"/>
<path d="M192.907 104C192.704 103.999 192.506 103.951 192.34 103.863C192.174 103.774 192.047 103.65 191.977 103.506C190.607 100.785 188.666 98.2474 186.227 95.9921C186.112 95.866 186.05 95.7163 186.05 95.5631C186.05 95.4098 186.112 95.2601 186.227 95.1341C187.276 93.7616 187.56 92.1309 187.018 90.6002C186.476 89.0695 185.151 87.7638 183.335 86.9701L180.753 85.8001V38.324C180.753 36.2554 179.665 34.2714 177.728 32.8086C175.791 31.3458 173.164 30.524 170.425 30.524H28.1309C25.3915 30.524 22.7644 31.3458 20.8274 32.8086C18.8904 34.2714 17.8022 36.2554 17.8022 38.324V104.208C17.8113 105.813 18.6594 107.35 20.1618 108.484C21.6643 109.619 23.6994 110.259 25.8241 110.266H72.8882L69.4453 119.886H64.8663C61.5129 119.888 58.2583 120.743 55.6282 122.314C52.9981 123.885 51.1463 126.08 50.3718 128.544H41.9023C40.9892 128.544 40.1135 128.818 39.4679 129.306C38.8222 129.793 38.4595 130.454 38.4595 131.144C38.4595 131.834 38.8222 132.495 39.4679 132.983C40.1135 133.47 40.9892 133.744 41.9023 133.744H129.592C129.534 134.365 129.615 134.989 129.833 135.59C130.091 136.353 130.551 137.068 131.184 137.694C131.817 138.319 132.61 138.842 133.517 139.23L140.782 142.402C141.684 142.793 142.679 143.046 143.71 143.147C144.742 143.247 145.789 143.193 146.793 142.988C147.797 142.783 148.737 142.43 149.561 141.951C150.384 141.471 151.075 140.873 151.592 140.192C151.704 140.059 151.864 139.954 152.054 139.89C152.243 139.825 152.454 139.804 152.66 139.828C156.442 140.322 160.308 140.322 164.09 139.828C164.299 139.802 164.514 139.826 164.705 139.896C164.896 139.966 165.054 140.078 165.157 140.218C165.859 141.125 166.865 141.877 168.074 142.397C169.282 142.918 170.651 143.188 172.043 143.182C173.431 143.192 174.798 142.923 176.002 142.402L183.267 139.23C184.169 138.837 184.958 138.313 185.591 137.688C186.223 137.064 186.685 136.35 186.951 135.59C187.225 134.834 187.296 134.045 187.16 133.268C187.024 132.491 186.683 131.742 186.159 131.066C186.04 130.936 185.977 130.782 185.977 130.624C185.977 130.466 186.04 130.312 186.159 130.182C188.589 127.932 190.53 125.405 191.908 122.694C191.974 122.548 192.099 122.421 192.266 122.333C192.433 122.244 192.634 122.197 192.838 122.2C194.935 122.193 196.944 121.561 198.427 120.441C199.91 119.321 200.747 117.804 200.756 116.22V109.876C200.721 108.317 199.88 106.83 198.414 105.733C196.947 104.635 194.971 104.013 192.907 104ZM24.688 38.324C24.688 37.6345 25.0507 36.9732 25.6964 36.4856C26.342 35.998 27.2178 35.724 28.1309 35.724H170.425C171.338 35.724 172.214 35.998 172.859 36.4856C173.505 36.9732 173.868 37.6345 173.868 38.324V46.124H24.688V38.324ZM25.8241 105.066C25.6749 105.066 25.5272 105.044 25.3894 105.001C25.2515 104.958 25.1263 104.894 25.0208 104.815C24.9153 104.735 24.8316 104.64 24.7745 104.536C24.7174 104.432 24.688 104.321 24.688 104.208V51.324H173.868V83.2001C172.238 82.8733 170.513 82.9495 168.946 83.4174C167.378 83.8853 166.05 84.7204 165.157 85.8001C165.05 85.9283 164.894 86.0292 164.71 86.0895C164.526 86.1498 164.321 86.1667 164.124 86.1381C160.339 85.6699 156.479 85.6699 152.694 86.1381C152.497 86.1705 152.291 86.1554 152.105 86.0947C151.92 86.0341 151.765 85.931 151.661 85.8001C151.144 85.1185 150.453 84.5209 149.629 84.0418C148.805 83.5626 147.863 83.2115 146.858 83.0084C145.853 82.8054 144.805 82.7546 143.774 82.8589C142.743 82.9632 141.749 83.2205 140.85 83.6161L133.586 86.7881C132.682 87.1723 131.889 87.6904 131.256 88.3114C130.623 88.9324 130.163 89.6435 129.902 90.4021C129.352 91.9349 129.624 93.5698 130.66 94.9521C130.785 95.0749 130.853 95.2258 130.853 95.3811C130.853 95.5363 130.785 95.6872 130.66 95.8101C128.221 98.0654 126.28 100.603 124.91 103.324C124.84 103.468 124.713 103.592 124.547 103.681C124.381 103.769 124.183 103.817 123.98 103.818C122.294 103.82 120.653 104.23 119.298 104.988L25.8241 105.066ZM117.646 119.886H76.3311L79.7739 110.266H115.924V116.22C115.946 117.552 116.551 118.841 117.646 119.886ZM64.9007 125.086H126.184C126.971 126.285 127.868 127.44 128.869 128.544H57.6363C58.2863 127.511 59.3102 126.638 60.5896 126.026C61.8691 125.414 63.3518 125.088 64.8663 125.086H64.9007ZM193.94 116.22C193.94 116.427 193.831 116.625 193.637 116.772C193.443 116.918 193.181 117 192.907 117C191.303 117.003 189.738 117.372 188.417 118.059C187.096 118.746 186.081 119.718 185.505 120.848C184.404 123.04 182.847 125.085 180.891 126.906C179.883 127.847 179.274 128.995 179.145 130.202C179.016 131.408 179.373 132.615 180.168 133.666C180.223 133.756 180.252 133.853 180.252 133.952C180.252 134.051 180.223 134.149 180.168 134.238C180.138 134.341 180.08 134.439 179.997 134.524C179.914 134.609 179.808 134.68 179.686 134.732L172.525 137.8C172.405 137.85 172.274 137.882 172.138 137.894C172.002 137.905 171.864 137.896 171.733 137.867C171.601 137.838 171.479 137.79 171.373 137.724C171.266 137.659 171.178 137.579 171.113 137.488C170.299 136.44 169.084 135.604 167.627 135.088C166.17 134.573 164.541 134.403 162.954 134.602C159.923 134.992 156.827 134.992 153.796 134.602C152.205 134.406 150.573 134.579 149.116 135.099C147.659 135.619 146.445 136.461 145.636 137.514C145.493 137.688 145.268 137.815 145.005 137.868C144.743 137.921 144.464 137.897 144.224 137.8L136.96 134.628C136.838 134.576 136.732 134.505 136.649 134.42C136.566 134.335 136.508 134.237 136.478 134.134C136.423 134.045 136.394 133.947 136.394 133.848C136.394 133.749 136.423 133.652 136.478 133.562C137.264 132.509 137.615 131.303 137.487 130.098C137.358 128.894 136.755 127.746 135.755 126.802C133.782 124.986 132.212 122.94 131.107 120.744C130.53 119.644 129.529 118.699 128.234 118.032C126.94 117.364 125.41 117.005 123.843 117C123.569 117 123.306 116.918 123.112 116.772C122.919 116.625 122.81 116.427 122.81 116.22V109.876C122.805 109.773 122.828 109.67 122.879 109.573C122.929 109.477 123.005 109.39 123.102 109.316C123.199 109.243 123.314 109.186 123.442 109.148C123.569 109.11 123.706 109.092 123.843 109.096C125.442 109.091 127.001 108.721 128.316 108.034C129.631 107.348 130.64 106.376 131.21 105.248C132.308 103.049 133.878 101.002 135.858 99.1901C136.858 98.2463 137.461 97.0983 137.59 95.8936C137.719 94.689 137.367 93.4828 136.581 92.43C136.525 92.3361 136.496 92.2341 136.496 92.1311C136.496 92.028 136.525 91.926 136.581 91.8321C136.609 91.7315 136.667 91.6371 136.751 91.556C136.834 91.4749 136.941 91.4093 137.063 91.3641L144.328 88.192C144.497 88.1566 144.675 88.1566 144.844 88.192C145.016 88.1937 145.185 88.2279 145.336 88.2914C145.486 88.355 145.613 88.446 145.705 88.5561C146.518 89.6061 147.732 90.4461 149.188 90.9657C150.644 91.4854 152.274 91.6605 153.865 91.4681C156.895 91.0782 159.992 91.0782 163.023 91.4681C164.623 91.6313 166.252 91.4258 167.696 90.8784C169.139 90.331 170.331 89.4672 171.113 88.4001C171.181 88.3143 171.27 88.2395 171.376 88.1799C171.481 88.1203 171.602 88.0772 171.73 88.053C171.858 88.0289 171.991 88.0241 172.122 88.039C172.252 88.054 172.378 88.0883 172.49 88.1401L179.755 91.312C179.877 91.3573 179.984 91.4229 180.067 91.504C180.151 91.5851 180.209 91.6795 180.237 91.78C180.293 91.874 180.322 91.976 180.322 92.0791C180.322 92.1821 180.293 92.2841 180.237 92.378C179.444 93.4247 179.089 94.6278 179.218 95.8295C179.348 97.0313 179.955 98.1755 180.96 99.1121C182.916 100.942 184.473 102.996 185.573 105.196C186.116 106.345 187.107 107.343 188.417 108.058C189.726 108.773 191.292 109.171 192.907 109.2C193.044 109.196 193.18 109.214 193.308 109.252C193.435 109.29 193.551 109.347 193.648 109.42C193.745 109.494 193.821 109.581 193.871 109.677C193.921 109.774 193.944 109.877 193.94 109.98V116.22Z" fill="#FD853A"/>
<path d="M158.375 101.244C155.283 101.244 152.261 101.936 149.691 103.233C147.12 104.53 145.117 106.374 143.934 108.531C142.751 110.688 142.441 113.061 143.044 115.351C143.648 117.641 145.136 119.744 147.322 121.395C149.508 123.046 152.293 124.17 155.325 124.625C158.357 125.081 161.5 124.847 164.356 123.953C167.212 123.06 169.654 121.547 171.371 119.606C173.089 117.665 174.005 115.383 174.005 113.048C174.005 109.917 172.359 106.915 169.427 104.701C166.496 102.488 162.52 101.244 158.375 101.244ZM158.375 119.652C156.645 119.652 154.954 119.265 153.516 118.539C152.078 117.813 150.957 116.782 150.296 115.575C149.634 114.369 149.46 113.041 149.798 111.76C150.135 110.479 150.968 109.302 152.191 108.378C153.414 107.455 154.972 106.826 156.669 106.571C158.365 106.316 160.123 106.447 161.721 106.947C163.319 107.447 164.685 108.293 165.646 109.379C166.607 110.465 167.12 111.742 167.12 113.048C167.102 114.79 166.172 116.457 164.534 117.684C162.896 118.911 160.682 119.6 158.375 119.6V119.652Z" fill="#FD853A"/>
</svg>
