<svg width="209" height="207" viewBox="0 0 209 207" fill="none" xmlns="http://www.w3.org/2000/svg">
<path d="M163.187 152.642C136.768 186.453 103.886 192.489 69.9652 165.985C36.0449 139.481 16.206 92.252 42.6249 58.4403C69.0439 24.6286 135.142 37.9732 169.062 64.4771C202.982 90.9809 189.605 118.83 163.187 152.642Z" fill="white"/>
<g clip-path="url(#clip0_274_98)">
<path d="M80.5365 98.1258C86.9565 110.743 97.2775 121.064 109.917 127.484L119.725 117.653C120.951 116.427 122.712 116.071 124.25 116.561C129.244 118.211 134.616 119.102 140.167 119.102C142.641 119.102 144.625 121.086 144.625 123.561V139.165C144.625 141.639 142.641 143.623 140.167 143.623C98.3029 143.623 64.375 109.695 64.375 67.8314C64.375 65.357 66.3812 63.373 68.8333 63.373H84.4375C86.9119 63.373 88.8958 65.357 88.8958 67.8314C88.8958 73.382 89.7875 78.7543 91.4371 83.7476C91.9275 85.2858 91.5708 87.0468 90.3448 88.2728L80.5365 98.1258Z" fill="#F57920"/>
</g>
<defs>
<clipPath id="clip0_274_98">
<rect width="107" height="107" fill="white" transform="translate(51 49.998)"/>
</clipPath>
</defs>
</svg>
