<svg width="153" height="141" viewBox="0 0 153 141" fill="none" xmlns="http://www.w3.org/2000/svg">
<path d="M153 73.0898C153 115.999 130.805 141 87.7585 141C44.7115 141 0 115.999 0 73.0898C0 30.1807 60.3002 0 103.347 0C146.394 0 153 30.1807 153 73.0898Z" fill="white"/>
<path d="M77.0625 24C57.5833 24 42 39.5833 42 59.0625C42 83.2167 55.2458 104.644 75.1146 117.11C76.2833 117.89 77.8417 117.89 79.4 117.11C98.8792 104.254 112.125 83.2167 112.125 59.0625C112.125 39.5833 96.5417 24 77.0625 24ZM77.0625 74.6458C68.4917 74.6458 61.4792 67.6333 61.4792 59.0625C61.4792 50.4917 68.4917 43.4792 77.0625 43.4792C85.6333 43.4792 92.6458 50.4917 92.6458 59.0625C92.6458 67.6333 85.6333 74.6458 77.0625 74.6458Z" fill="#F57920"/>
</svg>
