<svg width="202" height="201" viewBox="0 0 202 201" fill="none" xmlns="http://www.w3.org/2000/svg">
<path d="M156.57 146.39C130.282 180.863 98.2877 188.231 65.9421 163.564C33.5964 138.898 15.3169 93.1925 41.6052 58.7197C67.8936 24.2469 131.694 34.5525 164.039 59.2187C196.385 83.885 182.858 111.917 156.57 146.39Z" fill="white"/>
<path d="M133.465 64.9482H75.4648C67.4898 64.9482 60.9648 71.4732 60.9648 79.4482V115.698C60.9648 123.673 67.4898 130.198 75.4648 130.198H133.465C141.44 130.198 147.965 123.673 147.965 115.698V79.4482C147.965 71.4732 141.44 64.9482 133.465 64.9482ZM139.265 85.9732L110.627 105.186C108.815 106.273 106.64 106.998 104.465 106.998C102.29 106.998 100.115 106.273 98.3023 105.186L69.6648 85.9732C68.2148 84.8857 67.8523 82.7107 68.9398 80.8982C70.0273 79.4482 72.2023 79.0857 74.0148 80.1732L102.652 99.3857C103.74 100.111 105.552 100.111 106.64 99.3857L135.277 80.1732C137.09 79.0857 139.265 79.4482 140.352 81.2607C141.077 82.7107 140.715 84.8857 139.265 85.9732Z" fill="#F57920"/>
</svg>
