<svg width="72" height="72" viewBox="0 0 72 72" fill="none" xmlns="http://www.w3.org/2000/svg">
<path fill-rule="evenodd" clip-rule="evenodd" d="M36 72C16.1177 72 0 55.8823 0 36C0 16.1177 16.1177 0 36 0C55.8823 0 72 16.1177 72 36C72 55.8823 55.8823 72 36 72Z" fill="#01E675"/>
<path fill-rule="evenodd" clip-rule="evenodd" d="M36.007 12L35.993 12.0004C22.7623 12.0004 12 22.7657 12 36.0002C12 49.2343 22.7623 60 35.993 60C40.8736 60 45.4014 58.547 49.1956 56.0355L58.4204 58.9838L55.43 50.0669C58.3073 46.116 60 41.2485 60 35.9998C60 22.7653 49.2377 12 36.007 12ZM42.7071 24.1908C43.1725 23.0763 43.5252 23.0341 44.2302 23.0054C44.4703 22.9915 44.7378 22.9775 45.0344 22.9775C45.9515 22.9775 46.9105 23.2455 47.489 23.838C48.194 24.5576 49.9432 26.2364 49.9432 29.6792C49.9432 33.122 47.4324 36.4518 47.0941 36.9176C46.7414 37.3827 42.1992 44.5503 35.1467 47.4715C29.6316 49.7571 27.9951 49.5453 26.7399 49.2773C24.9063 48.8823 22.607 47.5272 22.0286 45.891C21.4502 44.2541 21.4502 42.8572 21.6197 42.5609C21.7889 42.2647 22.2547 42.0958 22.9597 41.7426C23.6647 41.3898 27.0926 39.6967 27.7415 39.4709C28.3765 39.2312 28.9827 39.316 29.462 39.9933C30.1392 40.9387 30.802 41.8983 31.3382 42.4765C31.7614 42.9281 32.4529 42.9846 33.0309 42.7445C33.8067 42.4203 35.9787 41.6578 38.659 39.2734C40.7326 37.4254 42.1431 35.1258 42.5519 34.4345C42.9611 33.7293 42.5941 33.3195 42.2701 32.9389C41.9173 32.5012 41.579 32.191 41.2263 31.7817C40.8736 31.3727 40.6761 31.1609 40.4504 30.6811C40.2104 30.2156 40.3799 29.7357 40.5491 29.3829C40.7183 29.0301 42.1287 25.5873 42.7071 24.1908Z" fill="white"/>
</svg>
